ISO-10303-21;
HEADER;
FILE_DESCRIPTION(('ViewDefinition[DesignTransferView]'),'2;1');
FILE_NAME('/dev/null','2026-08-12T16:41:11+03:00',(''),(''),'IfcOpenShell 0.8.5','IfcOpenShell 0.8.5','Nobody');
FILE_SCHEMA(('IFC4'));
ENDSEC;
DATA;
#1=IFCPROJECT('3oBd779Y15B9LMIu2P0CP0',$,'ExtentClashFixture',$,$,$,$,(#10),#5);
#2=IFCSIUNIT(*,.LENGTHUNIT.,.MILLI.,.METRE.);
#3=IFCSIUNIT(*,.AREAUNIT.,$,.SQUARE_METRE.);
#4=IFCSIUNIT(*,.VOLUMEUNIT.,$,.CUBIC_METRE.);
#5=IFCUNITASSIGNMENT((#2,#3,#4));
#6=IFCCARTESIANPOINT((0.,0.,0.));
#7=IFCDIRECTION((0.,0.,1.));
#8=IFCDIRECTION((1.,0.,0.));
#9=IFCAXIS2PLACEMENT3D(#6,#7,#8);
#10=IFCGEOMETRICREPRESENTATIONCONTEXT($,'Model',3,1.0000000000000001E-05,#9,$);
#11=IFCGEOMETRICREPRESENTATIONSUBCONTEXT('Body','Model',*,*,*,*,#10,$,.MODEL_VIEW.,$);
#12=IFCSITE('0B7FKW3Gn2PuGXZqxmeRS$',$,'Site',$,$,$,$,$,$,$,$,$,$,$);
#13=IFCBUILDING('0Om$_qbmjAyu8dqx2n8_9J',$,'Building',$,$,$,$,$,$,$,$,$);
#14=IFCBUILDINGSTOREY('1lh1KzqwP2ufjXo1dp6WeY',$,'L0',$,$,$,$,$,$,$);
#15=IFCRELAGGREGATES('0vpMWU0hv7$OrLP15sVxC9',$,$,$,#1,(#12));
#16=IFCRELAGGREGATES('2MIeVtBQn9Uxf3oxUjZ03W',$,$,$,#12,(#13));
#17=IFCRELAGGREGATES('1sBLkDLXj3wxsCu0pEBF9e',$,$,$,#13,(#14));
#18=IFCWALL('1hN5xtB6TBlfSLE8vErHqL',$,'Wall-A1',$,$,#40,#29,$,$);
#19=IFCCARTESIANPOINTLIST2D(((0.,0.),(0.,300.),(5000.,300.),(5000.,0.),(0.,0.)));
#20=IFCINDEXEDPOLYCURVE(#19,$,.F.);
#21=IFCDIRECTION((0.,0.,1.));
#22=IFCARBITRARYCLOSEDPROFILEDEF(.AREA.,$,#20);
#23=IFCCARTESIANPOINT((0.,0.,0.));
#24=IFCDIRECTION((0.,0.,1.));
#25=IFCDIRECTION((1.,0.,0.));
#26=IFCAXIS2PLACEMENT3D(#23,#24,#25);
#27=IFCEXTRUDEDAREASOLID(#22,#26,#21,3000.);
#28=IFCSHAPEREPRESENTATION(#11,'Body','SweptSolid',(#27));
#29=IFCPRODUCTDEFINITIONSHAPE($,$,(#28));
#35=IFCRELCONTAINEDINSPATIALSTRUCTURE('3WuNCYBBPEUwb8m7wQj15f',$,$,$,(#195,#239,#41,#85,#107,#151,#129,#173,#261,#283,#327,#349,#63,#305,#217,#18),#14);
#36=IFCCARTESIANPOINT((0.,0.,0.));
#37=IFCDIRECTION((0.,0.,1.));
#38=IFCDIRECTION((1.,0.,0.));
#39=IFCAXIS2PLACEMENT3D(#36,#37,#38);
#40=IFCLOCALPLACEMENT($,#39);
#41=IFCWALL('0ggZ3ertL3COMBE2XBLlD1',$,'Wall-B1',$,$,#62,#52,$,$);
#42=IFCCARTESIANPOINTLIST2D(((0.,0.),(0.,300.),(5000.,300.),(5000.,0.),(0.,0.)));
#43=IFCINDEXEDPOLYCURVE(#42,$,.F.);
#44=IFCDIRECTION((0.,0.,1.));
#45=IFCARBITRARYCLOSEDPROFILEDEF(.AREA.,$,#43);
#46=IFCCARTESIANPOINT((0.,0.,0.));
#47=IFCDIRECTION((0.,0.,1.));
#48=IFCDIRECTION((1.,0.,0.));
#49=IFCAXIS2PLACEMENT3D(#46,#47,#48);
#50=IFCEXTRUDEDAREASOLID(#45,#49,#44,3000.);
#51=IFCSHAPEREPRESENTATION(#11,'Body','SweptSolid',(#50));
#52=IFCPRODUCTDEFINITIONSHAPE($,$,(#51));
#58=IFCCARTESIANPOINT((2000.,0.,0.));
#59=IFCDIRECTION((0.,0.,1.));
#60=IFCDIRECTION((1.,0.,0.));
#61=IFCAXIS2PLACEMENT3D(#58,#59,#60);
#62=IFCLOCALPLACEMENT($,#61);
#63=IFCWALL('3UzAcFFeb5$Ojl_pOJiC5d',$,'Wall-A2',$,$,#84,#74,$,$);
#64=IFCCARTESIANPOINTLIST2D(((0.,0.),(0.,300.),(4000.,300.),(4000.,0.),(0.,0.)));
#65=IFCINDEXEDPOLYCURVE(#64,$,.F.);
#66=IFCDIRECTION((0.,0.,1.));
#67=IFCARBITRARYCLOSEDPROFILEDEF(.AREA.,$,#65);
#68=IFCCARTESIANPOINT((0.,0.,0.));
#69=IFCDIRECTION((0.,0.,1.));
#70=IFCDIRECTION((1.,0.,0.));
#71=IFCAXIS2PLACEMENT3D(#68,#69,#70);
#72=IFCEXTRUDEDAREASOLID(#67,#71,#66,3000.);
#73=IFCSHAPEREPRESENTATION(#11,'Body','SweptSolid',(#72));
#74=IFCPRODUCTDEFINITIONSHAPE($,$,(#73));
#80=IFCCARTESIANPOINT((0.,5000.,0.));
#81=IFCDIRECTION((0.,0.,1.));
#82=IFCDIRECTION((1.,0.,0.));
#83=IFCAXIS2PLACEMENT3D(#80,#81,#82);
#84=IFCLOCALPLACEMENT($,#83);
#85=IFCWALL('2tHr8QzYXFHfa0F55WAP_B',$,'Wall-B2',$,$,#106,#96,$,$);
#86=IFCCARTESIANPOINTLIST2D(((0.,0.),(0.,300.),(4000.,300.),(4000.,0.),(0.,0.)));
#87=IFCINDEXEDPOLYCURVE(#86,$,.F.);
#88=IFCDIRECTION((0.,0.,1.));
#89=IFCARBITRARYCLOSEDPROFILEDEF(.AREA.,$,#87);
#90=IFCCARTESIANPOINT((0.,0.,0.));
#91=IFCDIRECTION((0.,0.,1.));
#92=IFCDIRECTION((1.,0.,0.));
#93=IFCAXIS2PLACEMENT3D(#90,#91,#92);
#94=IFCEXTRUDEDAREASOLID(#89,#93,#88,3000.);
#95=IFCSHAPEREPRESENTATION(#11,'Body','SweptSolid',(#94));
#96=IFCPRODUCTDEFINITIONSHAPE($,$,(#95));
#102=IFCCARTESIANPOINT((1500.,5000.,0.));
#103=IFCDIRECTION((0.,0.,1.));
#104=IFCDIRECTION((1.,0.,0.));
#105=IFCAXIS2PLACEMENT3D(#102,#103,#104);
#106=IFCLOCALPLACEMENT($,#105);
#107=IFCWALL('0txm0W6X5EAQSC6PF7f71k',$,'Wall-A3',$,$,#128,#118,$,$);
#108=IFCCARTESIANPOINTLIST2D(((0.,0.),(0.,400.),(3000.,400.),(3000.,0.),(0.,0.)));
#109=IFCINDEXEDPOLYCURVE(#108,$,.F.);
#110=IFCDIRECTION((0.,0.,1.));
#111=IFCARBITRARYCLOSEDPROFILEDEF(.AREA.,$,#109);
#112=IFCCARTESIANPOINT((0.,0.,0.));
#113=IFCDIRECTION((0.,0.,1.));
#114=IFCDIRECTION((1.,0.,0.));
#115=IFCAXIS2PLACEMENT3D(#112,#113,#114);
#116=IFCEXTRUDEDAREASOLID(#111,#115,#110,2500.);
#117=IFCSHAPEREPRESENTATION(#11,'Body','SweptSolid',(#116));
#118=IFCPRODUCTDEFINITIONSHAPE($,$,(#117));
#124=IFCCARTESIANPOINT((10000.,0.,0.));
#125=IFCDIRECTION((0.,0.,1.));
#126=IFCDIRECTION((1.,0.,0.));
#127=IFCAXIS2PLACEMENT3D(#124,#125,#126);
#128=IFCLOCALPLACEMENT($,#127);
#129=IFCWALL('3hoPGYUaLCkRdFEdVWVe8i',$,'Wall-B3',$,$,#150,#140,$,$);
#130=IFCCARTESIANPOINTLIST2D(((0.,0.),(0.,400.),(3000.,400.),(3000.,0.),(0.,0.)));
#131=IFCINDEXEDPOLYCURVE(#130,$,.F.);
#132=IFCDIRECTION((0.,0.,1.));
#133=IFCARBITRARYCLOSEDPROFILEDEF(.AREA.,$,#131);
#134=IFCCARTESIANPOINT((0.,0.,0.));
#135=IFCDIRECTION((0.,0.,1.));
#136=IFCDIRECTION((1.,0.,0.));
#137=IFCAXIS2PLACEMENT3D(#134,#135,#136);
#138=IFCEXTRUDEDAREASOLID(#133,#137,#132,2500.);
#139=IFCSHAPEREPRESENTATION(#11,'Body','SweptSolid',(#138));
#140=IFCPRODUCTDEFINITIONSHAPE($,$,(#139));
#146=IFCCARTESIANPOINT((11000.,0.,0.));
#147=IFCDIRECTION((0.,0.,1.));
#148=IFCDIRECTION((1.,0.,0.));
#149=IFCAXIS2PLACEMENT3D(#146,#147,#148);
#150=IFCLOCALPLACEMENT($,#149);
#151=IFCWALL('2SJ5H3vg9DnBVxOKIbDvc1',$,'Wall-A4',$,$,#172,#162,$,$);
#152=IFCCARTESIANPOINTLIST2D(((0.,0.),(0.,250.),(6000.,250.),(6000.,0.),(0.,0.)));
#153=IFCINDEXEDPOLYCURVE(#152,$,.F.);
#154=IFCDIRECTION((0.,0.,1.));
#155=IFCARBITRARYCLOSEDPROFILEDEF(.AREA.,$,#153);
#156=IFCCARTESIANPOINT((0.,0.,0.));
#157=IFCDIRECTION((0.,0.,1.));
#158=IFCDIRECTION((1.,0.,0.));
#159=IFCAXIS2PLACEMENT3D(#156,#157,#158);
#160=IFCEXTRUDEDAREASOLID(#155,#159,#154,3000.);
#161=IFCSHAPEREPRESENTATION(#11,'Body','SweptSolid',(#160));
#162=IFCPRODUCTDEFINITIONSHAPE($,$,(#161));
#168=IFCCARTESIANPOINT((20000.,0.,0.));
#169=IFCDIRECTION((0.,0.,1.));
#170=IFCDIRECTION((1.,0.,0.));
#171=IFCAXIS2PLACEMENT3D(#168,#169,#170);
#172=IFCLOCALPLACEMENT($,#171);
#173=IFCWALL('2uqHJBIvzDhRt3azCAZTrD',$,'Wall-B4',$,$,#194,#184,$,$);
#174=IFCCARTESIANPOINTLIST2D(((0.,0.),(0.,250.),(6000.,250.),(6000.,0.),(0.,0.)));
#175=IFCINDEXEDPOLYCURVE(#174,$,.F.);
#176=IFCDIRECTION((0.,0.,1.));
#177=IFCARBITRARYCLOSEDPROFILEDEF(.AREA.,$,#175);
#178=IFCCARTESIANPOINT((0.,0.,0.));
#179=IFCDIRECTION((0.,0.,1.));
#180=IFCDIRECTION((1.,0.,0.));
#181=IFCAXIS2PLACEMENT3D(#178,#179,#180);
#182=IFCEXTRUDEDAREASOLID(#177,#181,#176,3000.);
#183=IFCSHAPEREPRESENTATION(#11,'Body','SweptSolid',(#182));
#184=IFCPRODUCTDEFINITIONSHAPE($,$,(#183));
#190=IFCCARTESIANPOINT((22000.,-100.,0.));
#191=IFCDIRECTION((0.,0.,1.));
#192=IFCDIRECTION((1.,0.,0.));
#193=IFCAXIS2PLACEMENT3D(#190,#191,#192);
#194=IFCLOCALPLACEMENT($,#193);
#195=IFCWALL('05mIGb$SH3VvgD7T9O4CW2',$,'Wall-A5',$,$,#216,#206,$,$);
#196=IFCCARTESIANPOINTLIST2D(((0.,0.),(0.,500.),(2000.,500.),(2000.,0.),(0.,0.)));
#197=IFCINDEXEDPOLYCURVE(#196,$,.F.);
#198=IFCDIRECTION((0.,0.,1.));
#199=IFCARBITRARYCLOSEDPROFILEDEF(.AREA.,$,#197);
#200=IFCCARTESIANPOINT((0.,0.,0.));
#201=IFCDIRECTION((0.,0.,1.));
#202=IFCDIRECTION((1.,0.,0.));
#203=IFCAXIS2PLACEMENT3D(#200,#201,#202);
#204=IFCEXTRUDEDAREASOLID(#199,#203,#198,3000.);
#205=IFCSHAPEREPRESENTATION(#11,'Body','SweptSolid',(#204));
#206=IFCPRODUCTDEFINITIONSHAPE($,$,(#205));
#212=IFCCARTESIANPOINT((30000.,0.,0.));
#213=IFCDIRECTION((0.,0.,1.));
#214=IFCDIRECTION((1.,0.,0.));
#215=IFCAXIS2PLACEMENT3D(#212,#213,#214);
#216=IFCLOCALPLACEMENT($,#215);
#217=IFCWALL('1smh4jg_D4k9TPkWsnOH_6',$,'Wall-B5',$,$,#238,#228,$,$);
#218=IFCCARTESIANPOINTLIST2D(((0.,0.),(0.,500.),(2000.,500.),(2000.,0.),(0.,0.)));
#219=IFCINDEXEDPOLYCURVE(#218,$,.F.);
#220=IFCDIRECTION((0.,0.,1.));
#221=IFCARBITRARYCLOSEDPROFILEDEF(.AREA.,$,#219);
#222=IFCCARTESIANPOINT((0.,0.,0.));
#223=IFCDIRECTION((0.,0.,1.));
#224=IFCDIRECTION((1.,0.,0.));
#225=IFCAXIS2PLACEMENT3D(#222,#223,#224);
#226=IFCEXTRUDEDAREASOLID(#221,#225,#220,3000.);
#227=IFCSHAPEREPRESENTATION(#11,'Body','SweptSolid',(#226));
#228=IFCPRODUCTDEFINITIONSHAPE($,$,(#227));
#234=IFCCARTESIANPOINT((30500.,0.,0.));
#235=IFCDIRECTION((0.,0.,1.));
#236=IFCDIRECTION((1.,0.,0.));
#237=IFCAXIS2PLACEMENT3D(#234,#235,#236);
#238=IFCLOCALPLACEMENT($,#237);
#239=IFCWALL('3C3Zb9GfjCQvi0ko5zmfKY',$,'Wall-A6',$,$,#260,#250,$,$);
#240=IFCCARTESIANPOINTLIST2D(((0.,0.),(0.,300.),(4000.,300.),(4000.,0.),(0.,0.)));
#241=IFCINDEXEDPOLYCURVE(#240,$,.F.);
#242=IFCDIRECTION((0.,0.,1.));
#243=IFCARBITRARYCLOSEDPROFILEDEF(.AREA.,$,#241);
#244=IFCCARTESIANPOINT((0.,0.,0.));
#245=IFCDIRECTION((0.,0.,1.));
#246=IFCDIRECTION((1.,0.,0.));
#247=IFCAXIS2PLACEMENT3D(#244,#245,#246);
#248=IFCEXTRUDEDAREASOLID(#243,#247,#242,3000.);
#249=IFCSHAPEREPRESENTATION(#11,'Body','SweptSolid',(#248));
#250=IFCPRODUCTDEFINITIONSHAPE($,$,(#249));
#256=IFCCARTESIANPOINT((60000.,0.,0.));
#257=IFCDIRECTION((0.,0.,1.));
#258=IFCDIRECTION((1.,0.,0.));
#259=IFCAXIS2PLACEMENT3D(#256,#257,#258);
#260=IFCLOCALPLACEMENT($,#259);
#261=IFCWALL('0FuhUH4r9AmwFAKDKdVSR$',$,'Wall-B6',$,$,#282,#272,$,$);
#262=IFCCARTESIANPOINTLIST2D(((0.,0.),(0.,300.),(4000.,300.),(4000.,0.),(0.,0.)));
#263=IFCINDEXEDPOLYCURVE(#262,$,.F.);
#264=IFCDIRECTION((0.,0.,1.));
#265=IFCARBITRARYCLOSEDPROFILEDEF(.AREA.,$,#263);
#266=IFCCARTESIANPOINT((0.,0.,0.));
#267=IFCDIRECTION((0.,0.,1.));
#268=IFCDIRECTION((1.,0.,0.));
#269=IFCAXIS2PLACEMENT3D(#266,#267,#268);
#270=IFCEXTRUDEDAREASOLID(#265,#269,#264,3000.);
#271=IFCSHAPEREPRESENTATION(#11,'Body','SweptSolid',(#270));
#272=IFCPRODUCTDEFINITIONSHAPE($,$,(#271));
#278=IFCCARTESIANPOINT((61500.,50.,0.));
#279=IFCDIRECTION((0.,0.,1.));
#280=IFCDIRECTION((1.,0.,0.));
#281=IFCAXIS2PLACEMENT3D(#278,#279,#280);
#282=IFCLOCALPLACEMENT($,#281);
#283=IFCWALL('3GT7o5Hyr4RAoxDJpa6nEW',$,'Wall-Sep-L',$,$,#304,#294,$,$);
#284=IFCCARTESIANPOINTLIST2D(((0.,0.),(0.,300.),(2000.,300.),(2000.,0.),(0.,0.)));
#285=IFCINDEXEDPOLYCURVE(#284,$,.F.);
#286=IFCDIRECTION((0.,0.,1.));
#287=IFCARBITRARYCLOSEDPROFILEDEF(.AREA.,$,#285);
#288=IFCCARTESIANPOINT((0.,0.,0.));
#289=IFCDIRECTION((0.,0.,1.));
#290=IFCDIRECTION((1.,0.,0.));
#291=IFCAXIS2PLACEMENT3D(#288,#289,#290);
#292=IFCEXTRUDEDAREASOLID(#287,#291,#286,3000.);
#293=IFCSHAPEREPRESENTATION(#11,'Body','SweptSolid',(#292));
#294=IFCPRODUCTDEFINITIONSHAPE($,$,(#293));
#300=IFCCARTESIANPOINT((40000.,0.,0.));
#301=IFCDIRECTION((0.,0.,1.));
#302=IFCDIRECTION((1.,0.,0.));
#303=IFCAXIS2PLACEMENT3D(#300,#301,#302);
#304=IFCLOCALPLACEMENT($,#303);
#305=IFCWALL('1rDrpV9b53Xe8B_9MS9fxH',$,'Wall-Sep-R',$,$,#326,#316,$,$);
#306=IFCCARTESIANPOINTLIST2D(((0.,0.),(0.,300.),(2000.,300.),(2000.,0.),(0.,0.)));
#307=IFCINDEXEDPOLYCURVE(#306,$,.F.);
#308=IFCDIRECTION((0.,0.,1.));
#309=IFCARBITRARYCLOSEDPROFILEDEF(.AREA.,$,#307);
#310=IFCCARTESIANPOINT((0.,0.,0.));
#311=IFCDIRECTION((0.,0.,1.));
#312=IFCDIRECTION((1.,0.,0.));
#313=IFCAXIS2PLACEMENT3D(#310,#311,#312);
#314=IFCEXTRUDEDAREASOLID(#309,#313,#308,3000.);
#315=IFCSHAPEREPRESENTATION(#11,'Body','SweptSolid',(#314));
#316=IFCPRODUCTDEFINITIONSHAPE($,$,(#315));
#322=IFCCARTESIANPOINT((50000.,0.,0.));
#323=IFCDIRECTION((0.,0.,1.));
#324=IFCDIRECTION((1.,0.,0.));
#325=IFCAXIS2PLACEMENT3D(#322,#323,#324);
#326=IFCLOCALPLACEMENT($,#325);
#327=IFCWALL('3mtu003Kf4gB$qcnwy5spZ',$,'Wall-Near-L',$,$,#348,#338,$,$);
#328=IFCCARTESIANPOINTLIST2D(((0.,0.),(0.,300.),(2000.,300.),(2000.,0.),(0.,0.)));
#329=IFCINDEXEDPOLYCURVE(#328,$,.F.);
#330=IFCDIRECTION((0.,0.,1.));
#331=IFCARBITRARYCLOSEDPROFILEDEF(.AREA.,$,#329);
#332=IFCCARTESIANPOINT((0.,0.,0.));
#333=IFCDIRECTION((0.,0.,1.));
#334=IFCDIRECTION((1.,0.,0.));
#335=IFCAXIS2PLACEMENT3D(#332,#333,#334);
#336=IFCEXTRUDEDAREASOLID(#331,#335,#330,3000.);
#337=IFCSHAPEREPRESENTATION(#11,'Body','SweptSolid',(#336));
#338=IFCPRODUCTDEFINITIONSHAPE($,$,(#337));
#344=IFCCARTESIANPOINT((70000.,0.,0.));
#345=IFCDIRECTION((0.,0.,1.));
#346=IFCDIRECTION((1.,0.,0.));
#347=IFCAXIS2PLACEMENT3D(#344,#345,#346);
#348=IFCLOCALPLACEMENT($,#347);
#349=IFCWALL('29spki9gz20O6dk8PKfPdu',$,'Wall-Near-R',$,$,#370,#360,$,$);
#350=IFCCARTESIANPOINTLIST2D(((0.,0.),(0.,300.),(2000.,300.),(2000.,0.),(0.,0.)));
#351=IFCINDEXEDPOLYCURVE(#350,$,.F.);
#352=IFCDIRECTION((0.,0.,1.));
#353=IFCARBITRARYCLOSEDPROFILEDEF(.AREA.,$,#351);
#354=IFCCARTESIANPOINT((0.,0.,0.));
#355=IFCDIRECTION((0.,0.,1.));
#356=IFCDIRECTION((1.,0.,0.));
#357=IFCAXIS2PLACEMENT3D(#354,#355,#356);
#358=IFCEXTRUDEDAREASOLID(#353,#357,#352,3000.);
#359=IFCSHAPEREPRESENTATION(#11,'Body','SweptSolid',(#358));
#360=IFCPRODUCTDEFINITIONSHAPE($,$,(#359));
#366=IFCCARTESIANPOINT((72500.,0.,0.));
#367=IFCDIRECTION((0.,0.,1.));
#368=IFCDIRECTION((1.,0.,0.));
#369=IFCAXIS2PLACEMENT3D(#366,#367,#368);
#370=IFCLOCALPLACEMENT($,#369);
ENDSEC;
END-ISO-10303-21;
